<svg width="138" height="60" viewBox="0 0 138 60" fill="none" xmlns="http://www.w3.org/2000/svg">
<path d="M56.3105 44.8409C52.5582 43.8604 49.365 41.4966 47.3084 38.3271C44.7507 43.6257 39.8349 47.5726 33.9231 48.8055C33.9447 48.9734 33.9559 49.1447 33.9559 49.3185C33.9559 51.5165 32.1741 53.2983 29.9761 53.2983C27.7782 53.2983 25.9964 51.5165 25.9964 49.3185C25.9964 49.1447 26.0076 48.9734 26.0292 48.8054C17.2995 46.9848 10.7415 39.2463 10.7415 29.9761C10.7415 20.7059 17.2995 12.9674 26.0293 11.1467C26.0076 10.9785 25.9964 10.8071 25.9964 10.633C25.9964 8.43504 27.7782 6.65325 29.9762 6.65325C32.1741 6.65325 33.9559 8.43504 33.9559 10.633C33.9559 10.8071 33.9447 10.9785 33.923 11.1467C39.8348 12.3796 44.7506 16.3264 47.3083 21.6249C49.3649 18.4554 52.558 16.0916 56.3104 15.111C51.7382 7.02854 43.5525 1.26007 33.9476 -0.00012207C33.8144 2.07735 32.0873 3.72112 29.9762 3.72112C27.8651 3.72112 26.1379 2.07736 26.0047 -9.86837e-05C12.4832 1.77404 1.77435 12.4828 8.42705e-05 26.0042C2.07787 26.1371 3.722 27.8644 3.722 29.9758C3.722 32.0871 2.07783 33.8145 0 33.9473C1.77402 47.4691 12.4831 58.1782 26.0049 59.9523C26.1379 57.8746 27.8651 56.2306 29.9764 56.2306C32.0876 56.2306 33.8149 57.8746 33.9479 59.9523C43.5528 58.692 51.7384 52.9235 56.3105 44.8409Z" fill="#AC61FF"/>
<path d="M77.1476 45.2553C73.5098 45.2553 70.6274 44.2479 68.5007 42.233C66.3739 40.1902 65.3105 37.2799 65.3105 33.5021V26.4503C65.3105 22.6725 66.3739 19.7762 68.5007 17.7614C70.6274 15.7185 73.5098 14.6971 77.1476 14.6971C80.7575 14.6971 83.5419 15.6906 85.5007 17.6774C87.4876 19.6363 88.481 22.3367 88.481 25.7787V26.0305H83.0242V25.6108C83.0242 23.8758 82.5345 22.4486 81.555 21.3293C80.6036 20.2099 79.1345 19.6502 77.1476 19.6502C75.1888 19.6502 73.6497 20.2519 72.5303 21.4552C71.411 22.6585 70.8513 24.2955 70.8513 26.3663V33.5861C70.8513 35.6289 71.411 37.2659 72.5303 38.4972C73.6497 39.7005 75.1888 40.3022 77.1476 40.3022C79.1345 40.3022 80.6036 39.7425 81.555 38.6231C82.5345 37.4758 83.0242 36.0487 83.0242 34.3417V33.5861H88.481V34.1737C88.481 37.6157 87.4876 40.3301 85.5007 42.317C83.5419 44.2758 80.7575 45.2553 77.1476 45.2553Z" fill="black"/>
<path d="M101.055 44.6676V19.2305H100.299L97.3836 26.1166H91.8297L96.7315 15.2848H106.428V44.6676H101.055Z" fill="black"/>
<path d="M124.735 44.6676V38.7071H110.296V32.4947L120.454 15.2848H123.98V18.7268L115.417 33.2503V33.9219H124.735V28.469H130.108V44.6676H124.735Z" fill="black"/>
</svg>
